<?xml version="1.0" encoding="utf-8"?>
<!-- Generator: Adobe Illustrator 28.3.0, SVG Export Plug-In . SVG Version: 6.00 Build 0)  -->
<svg version="1.1" id="Layer_1" xmlns="http://www.w3.org/2000/svg" xmlns:xlink="http://www.w3.org/1999/xlink" x="0px" y="0px"
	 viewBox="0 0 1200 1200" style="enable-background:new 0 0 1200 1200;" xml:space="preserve">
<style type="text/css">
	.st0{fill:#237283;}
	.st1{fill:#C0946C;}
</style>
<g>
	<path class="st0" d="M569.35,551.95c0,0.92-0.74,1.66-1.66,1.66H420.63c-0.92,0-1.66-0.74-1.66-1.66v-0.63
		c0-0.92,0.74-1.66,1.66-1.66h147.06c0.92,0,1.66,0.74,1.66,1.66V551.95L569.35,551.95z"/>
	<path class="st0" d="M1126.03,551.95c0,0.95-0.79,1.74-1.74,1.74H977.07c-0.95,0-1.74-0.79-1.74-1.74v-0.53
		c0-0.95,0.79-1.74,1.74-1.74h147.22c0.95,0,1.74,0.79,1.74,1.74V551.95L1126.03,551.95z"/>
	<path class="st1" d="M517.14,718.38c-7.5,75.43-61.86,119.24-136.9,119.56c-24.18,0.11-48.25,0.11-72.18,0
		c-0.37,0-0.66-0.26-0.71-0.63c-0.05-0.34,0.16-0.69,0.5-0.79c12.01-3.64,18.29-11.9,18.87-24.78c0.77-16.65,0.84-33.44,0.26-50.38
		c-0.05-1.66-0.87-2.24-2.48-1.72c-19.56,6.47-37.87,16.21-55,29.19c-18.4,13.94-36.74,39.77-23.83,62.74
		c8.6,15.33,25.13,20.74,41.91,15.99c0.74-0.21,1.4,0.53,1.13,1.24l-7.21,19.35c-0.34,0.92-1,1.32-1.98,1.24
		c-29.53-2.88-48.51-23.91-42.65-54.05c7.97-41.12,51.81-65.77,88.63-78.78c0.9-0.32,1.35-0.95,1.35-1.9
		c0.08-41.01-0.11-81.82-0.55-122.41c-0.16-12.8-5.81-21.35-16.94-25.6c-0.84-0.32-0.61-1.56,0.29-1.56h61.57
		c0.32,0,0.61,0.24,0.66,0.55c0.05,0.32-0.13,0.61-0.45,0.71c-24.36,7.81-20.06,44.42-18.84,63.9c0.05,0.53,0.53,0.9,1.06,0.79
		c0.77-0.16,1.24-0.58,1.45-1.29c13.22-42.2,48.25-72.82,94.7-63.08c18.18,3.8,33.33,13.22,45.47,28.27
		c0.55,0.71,1.11,0.69,1.61-0.05c16.57-24.33,43.84-30.69,71.87-30.64c53.52,0.08,107.05,0.34,160.57,0.82
		c0.87,0.03,1.32,0.45,1.35,1.32c0.45,14.91,0.45,29.88-0.03,44.89c-0.03,0.84-0.26,1.58-0.71,2.19c-0.26,0.4-0.87,0.24-0.95-0.24
		c-8.16-53.6-54.5-46.5-98.89-45.9c-16.13,0.21-21.96,11.3-22.14,26.31c-0.32,24.49-2.4,52.23,0.58,76.38
		c0.42,3.4-0.82,6.65-0.82,9.63c-0.03,26.26-0.03,52.5,0,78.76c0.03,16.1,1.21,36.69,21.91,36.98c34.92,0.45,95.2,7.57,100.32-44
		c0.18-1.9,0.9-2.74,2.09-2.53c0.58,0.08,1.03,0.61,1.03,1.19v46.11c0,0.82-0.66,1.48-1.48,1.48l-168.04-0.13
		c-0.4,0-0.71-0.29-0.77-0.66c-0.08-0.37,0.13-0.74,0.5-0.87c12.06-4.17,18.21-12.91,18.45-26.18c0.48-26.39,0.48-52.81,0.03-79.23
		c-0.03-0.77-0.42-1.14-1.19-1.11c-21.51,0.92-41.94-3.17-61.31-12.27C518.31,716.74,517.22,717.35,517.14,718.38 M581.94,633.29
		c-0.08-10-5.01-25.47-17.6-25.71c-25.15-0.53-51.49,7.05-65.4,29.56c-0.5,0.77-0.5,1.56,0,2.32c13.65,22.09,19.9,46.24,18.82,72.4
		c-0.05,0.98,0.37,1.69,1.24,2.14c19.4,9.69,39.93,13.83,61.6,12.48c0.74-0.03,1.11-0.42,1.13-1.19
		C582.18,694.7,582.23,664.04,581.94,633.29 M438.26,612.83c-42.28-6.73-70.47,22.75-82.13,59.91c-6.65,21.25-3.96,50.41-3.75,73.56
		c0.03,0.87,0.84,1.5,1.69,1.27c61.92-17.47,97.02-60.73,88.28-127.03C441.93,617.27,442.59,613.52,438.26,612.83 M479.3,761.74
		c15.55-43.6,18.34-123.49-32.6-146.16c-0.98-0.42-2.03,0.37-1.9,1.43c7.94,60.76-14.89,102.64-68.52,125.63
		c-6.47,2.77-15.23,5.07-22.67,7.81c-0.84,0.32-1.27,0.92-1.29,1.82c-0.08,17.23-4.75,67.78,9.29,79.15
		c2.88,2.3,7.34,3.62,13.41,3.96C425.59,838.04,462.85,807.85,479.3,761.74L479.3,761.74z"/>
	<path class="st1" d="M824.25,745.46c-28.64-7.92-64.13-27.42-73.58-57.25c-2.03-6.41-2.96-16.73-2.77-30.96
		c0.24-16.92,0.37-33.86,0.34-50.81c0-1.13,0.55-1.69,1.69-1.69l177.91-0.34c1.08-0.03,1.61,0.53,1.64,1.61
		c0.4,20.72,0.42,36.4,0.08,47.01c-0.03,0.58-0.21,0.98-0.61,1.21c-0.82,0.53-1.27,0.32-1.35-0.66
		c-2.82-33.33-21.3-48.88-55.43-46.61c-16.13,1.08-20.22,16.73-20.27,30.09c-0.24,38.01-0.24,76.01,0,114.02
		c0,0.92,0.42,1.5,1.29,1.79c41.91,13.51,101.11,43.18,99.58,95.65c-0.69,23.81-21.72,38.32-43.71,40.12
		c-0.95,0.08-1.61-0.32-1.95-1.21l-7.26-19.03c-0.34-0.87,0.48-1.77,1.4-1.5c29.01,8.02,53.71-15.97,43.34-45.11
		c-11.59-32.62-59.41-56.14-91.48-65.67c-0.71-0.21-1.08,0.05-1.11,0.82c-0.37,17.13-0.53,34.23-0.5,51.31
		c0.05,14.23,6.6,23.52,19.66,27.87c0.29,0.11,0.48,0.4,0.42,0.69c-0.05,0.32-0.32,0.53-0.63,0.53h-63.29
		c-0.48,0-0.9-0.37-0.95-0.84c-0.05-0.48,0.26-0.92,0.74-1.03c14.2-3.14,18.34-16.31,18.66-29.11c0.45-19.69,0.32-39.38-0.42-59.07
		C825.68,746.33,825.18,745.72,824.25,745.46 M790.34,607.5c-34.36,2.9-40.96,35-39.93,63.11c1.48,40.09,40.09,62.6,74.27,72.61
		c0.82,0.24,1.24-0.08,1.24-0.95c0.37-48.11,0.34-84.88-0.05-110.3C825.47,608.22,809.58,605.89,790.34,607.5L790.34,607.5z"/>
	<path class="st1" d="M1092.19,824.98c16.97-5.7,26.66-26.66,20.69-42.89c-4.91-13.38-14.7-21.64-29.35-24.84
		c-0.66-0.16-0.87-1-0.34-1.43l14.94-11.98c1.4-1.11,3.35-1.16,4.78-0.11c45.92,33.6,12.38,81.82-29.8,91.45
		c-154.19,35.26-182.88-209.24-38.67-229.51c21.96-3.09,42.7,1.74,62.66,10.82c9.79,4.49,18.18,2.56,19.45-9.16
		c0.11-0.98,0.53-1.58,1.29-1.82c0.79-0.26,1.19,0.03,1.19,0.84v80.29c0,0.29-0.13,0.4-0.42,0.32c-0.26-0.08-0.53-0.18-0.79-0.26
		c-0.16-0.05-0.24-0.16-0.26-0.32c-3.91-33.28-16.5-65.03-51.12-76.17c-23.91-7.68-51.94,0.37-69.1,18.82
		c-40.54,43.63-39.19,144.32,8.6,183.4C1029.96,832.08,1058.7,836.25,1092.19,824.98L1092.19,824.98z"/>
	<path class="st1" d="M673.81,736.67c-2.14-33.99-38.19-49.17-62.74-24.78c-0.34,0.32-0.87,0.32-1.19,0
		c-0.18-0.18-0.32-0.4-0.34-0.58c-0.03-0.05,0-0.11,0.05-0.16c24.89-28.45,64.24-26.84,80.95,9.61c0.45,0.98,0.21,2.16-0.61,2.9
		L675,737.14C674.55,737.54,673.84,737.25,673.81,736.67L673.81,736.67z"/>
	<path class="st0" d="M208.8,618.72c16.71,17.34,26.31,38.56,28.77,63.61c1.03,10.4,0.21,33.62-13.12,35.66
		c-16.79,2.56-19.79-8.97-19.69-23.04c0.4-50.91-45.05-51.47-82.13-58.3c-3.01-0.55-7.76-2.53-9.66-4.09
		c-16.81-13.94,3.06-21.33-1.13-34.15c-2.11-6.39-20.69-16.57-7.18-22.65c4.33-1.95,4.2-3.43-0.37-4.46
		c-3.11-0.71-5.6-2.32-7.44-4.83c-0.55-0.79-0.69-1.64-0.37-2.56c1.95-5.49,5.96-11.19,4.94-16.79
		c-2.8-15.2-39.51-13.99-23.33-32.99c17.79-20.9,36.45-38.08,37.69-60.39c2.9-52.1,24.91-91.72,66.06-118.85
		c117.26-77.36,266.91,43.52,213.86,174.43c-14.86,36.69-41.65,63.58-80.31,80.66c-15.04,6.65-25.05-10.06-10.45-17.23
		c32.36-15.89,54.71-32.75,69.81-65.45c37.13-80.6-21.59-173.64-108.92-175.8c-92.06-2.3-156.38,91.27-117.37,175.8
		c12.96,28.06,33.31,48.62,61.6,60.49c14.3,5.99,31.2,11.74,43.1,19.27c24.04,15.18,39.4,36.66,46.08,64.45
		c2.35,9.79,5.36,52.55,0.11,61.02c-5.07,8.18-18.63,9-24.78,1.95c-1.93-2.19-3.4-6.33-4.46-12.48
		c-6.81-39.56-22.09-68.01-60.18-84.85C208.93,616.69,208.06,617.95,208.8,618.72L208.8,618.72z"/>
	<path class="st1" d="M267.71,351.81c7.52,4.43,7.55,15.28-1.16,18.34c-5.12,1.82-13.88,0.71-19.29,2.01
		c-43.5,10.43-67.25,38.82-71.23,85.2c-1.11,12.72-20.82,10.66-19.82-4.7c3.77-57.91,49.78-104.44,109.03-101.59
		C266.1,351.1,266.94,351.36,267.71,351.81L267.71,351.81z"/>
	<path class="st1" d="M186.55,495.68c53,90.21,186.81,30.93,154.29-69.33c-3.27-10.11-10.58-19.85-16.76-28.87
		c-0.45-0.66-0.69-1.37-0.71-2.16c-0.48-12.11,11.98-15.65,19.13-6.68c31.7,39.8,32.41,96.94-1.19,135.26
		c-48.3,55.13-139.94,46.29-173.03-19.87C163.53,494.49,179.61,483.85,186.55,495.68L186.55,495.68z"/>
	<path class="st1" d="M250.05,394.09c59.12-12.06,98.37,61.39,56.64,105.28c-9.03,9.53-23.25-2.3-13.72-13.8
		c27.05-32.62,1.37-81.24-41.23-71.87c-27.58,6.04-41.25,37.61-28.56,61.89c1.24,2.38,4.46,6.89,9.66,13.57
		c0.55,0.69,0.82,1.53,0.79,2.4c-0.53,13.01-13.09,14.2-20.16,4.88C183.93,457.56,201.35,404.01,250.05,394.09L250.05,394.09z"/>
	<path class="st0" d="M270.93,441.12c11.35,9,12.01,18.77,2.01,29.35c-0.61,0.66-0.95,1.43-1,2.35c-0.29,6.31,1.37,18.47-1.87,23.75
		c-3.59,5.81-11.74,6.28-15.99,1.24c-4.41-5.28-2.69-17.84-2.69-24.73c0-1.08-0.37-2.01-1.13-2.77l-3.67-3.64
		c-0.45-0.45-0.79-0.98-1.03-1.56C238.49,447.72,254.93,428.48,270.93,441.12L270.93,441.12z"/>
	<path class="st0" d="M208.24,726.51c29.03,5.67,61.6,4.35,90.66-0.29c0.66-0.11,0.79,0.11,0.34,0.63L254.4,779.8
		c-0.55,0.66-1.13,0.66-1.69,0l-44.92-52.55C207.5,726.9,207.82,726.43,208.24,726.51L208.24,726.51z"/>
	<g>
		<path class="st0" d="M598.33,568.21H616v-39.85h-8.28v32.81h-6.92c-5.8,0-8.69-2.66-8.69-7.98v-10.23h-8.28v11.53
			c0,3.94,1.16,7.21,3.49,9.82C589.65,566.91,593.32,568.21,598.33,568.21z"/>
		<rect x="595.13" y="520.97" class="st0" width="8.51" height="7.45"/>
		<path class="st0" d="M629.22,555.86c2.19,1.22,4.64,1.83,7.36,1.83h0.83l3.19-7.09H638c-2.33,0-4.11-0.68-5.35-2.04
			c-1.24-1.36-1.86-3.22-1.86-5.59c0-5.4,2.4-8.1,7.21-8.1c1.14,0,2.4,0.14,3.78,0.41v20.4c0,1.93-0.37,3.46-1.12,4.58
			s-1.84,1.97-3.28,2.54c-1.44,0.57-3.38,1.01-5.82,1.33l3.31,7.39c3.23-0.51,5.94-1.31,8.13-2.39c2.19-1.08,3.91-2.73,5.17-4.94
			c1.26-2.21,1.89-5.14,1.89-8.81v-26.43c-5.13-0.79-9.04-1.18-11.77-1.18c-3.19,0-6,0.65-8.42,1.95c-2.42,1.3-4.31,3.1-5.65,5.41
			c-1.34,2.31-2.01,4.88-2.01,7.71c0,2.96,0.62,5.56,1.86,7.8C625.31,552.9,627.03,554.64,629.22,555.86z"/>
		<rect x="659.22" y="515.89" class="st0" width="8.51" height="7.45"/>
		<rect x="674.54" y="562.89" class="st0" width="8.51" height="7.45"/>
		<rect x="686.36" y="562.89" class="st0" width="8.51" height="7.45"/>
		<path class="st0" d="M751.1,553.2c1.34,1.65,2.76,2.81,4.26,3.46c1.5,0.65,3.49,0.99,5.97,1.03h17.03c4.02,0,7.39-1.3,10.11-3.9
			c1.22,1.3,2.61,2.28,4.17,2.93c1.56,0.65,3.01,0.98,4.35,0.98h14.13V512.4h-8.22v38.19h-5.91c-2.33,0-4.1-0.57-5.32-1.71
			c0.71-1.77,1.07-3.78,1.07-6.03c0-2.84-0.67-5.41-2.01-7.71c-1.34-2.31-3.22-4.11-5.64-5.41c-2.43-1.3-5.23-1.95-8.43-1.95
			c-2.72,0-6.64,0.39-11.76,1.18v21.64h-3.55c-2.29,0-3.98-0.17-5.09-0.5c-1.1-0.34-2.09-0.98-2.96-1.92c0.2-1.06,0.3-2.09,0.3-3.07
			v-17.32h-8.28v16.02c0,2.05-0.56,3.7-1.68,4.94c-1.12,1.24-2.48,1.86-4.05,1.86h-5.32c-2.33,0-4.1-0.57-5.32-1.71
			c0.71-1.77,1.07-3.78,1.07-6.03c0-2.84-0.67-5.41-2.01-7.71c-1.34-2.31-3.22-4.11-5.64-5.41c-2.43-1.3-5.23-1.95-8.43-1.95
			c-2.72,0-6.64,0.39-11.76,1.18v21.64h-3.55c-2.29,0-3.98-0.17-5.09-0.5c-1.1-0.34-2.09-0.98-2.96-1.92c0.2-1.06,0.3-2.09,0.3-3.07
			v-17.32h-8.28v16.02c0,2.05-0.56,3.7-1.68,4.94c-1.12,1.24-2.48,1.86-4.05,1.86h-3.2c-2.72,0-4.71-0.85-5.97-2.54v-19.69h-8.28
			v27.79c0,1.93-0.28,3.44-0.83,4.52c-0.55,1.08-1.38,1.86-2.48,2.34c-1.1,0.47-2.62,0.85-4.55,1.12l3.31,7.39
			c3.78-0.44,6.87-1.86,9.26-4.29c2.38-2.42,3.58-6.2,3.58-11.32v-0.06c1.12,0.67,2.22,1.14,3.31,1.44
			c0.02,0.06,0.02,0.12,0.06,0.19c0.08,0.14,0.24,0.21,0.47,0.21h7.8c1.89,0,3.62-0.39,5.17-1.18c1.56-0.79,2.85-1.89,3.87-3.31
			c1.34,1.65,2.76,2.81,4.26,3.46c1.5,0.65,3.49,0.99,5.97,1.03c0,0,0,0,0,0h17.03c4.02,0,7.39-1.3,10.11-3.9
			c1.22,1.3,2.61,2.28,4.17,2.93c1.56,0.65,3.01,0.98,4.35,0.98h7.8c1.89,0,3.62-0.39,5.17-1.18
			C748.78,555.72,750.07,554.61,751.1,553.2z M773.15,535.28c1.3-0.28,2.56-0.41,3.78-0.41c4.81,0,7.21,2.7,7.21,8.1
			c0,2.37-0.62,4.23-1.86,5.59c-1.24,1.36-3.03,2.04-5.35,2.04h-3.78V535.28z M719.56,548.55c-1.24,1.36-3.03,2.04-5.35,2.04h-3.78
			v-15.31c1.3-0.28,2.56-0.41,3.78-0.41c4.81,0,7.21,2.7,7.21,8.1C721.42,545.33,720.8,547.19,719.56,548.55z"/>
		<rect x="750.98" y="515.89" class="st0" width="8.51" height="7.45"/>
		<rect x="739.16" y="515.89" class="st0" width="8.51" height="7.45"/>
		<rect x="821.16" y="512.4" class="st0" width="8.28" height="45.29"/>
		<path class="st0" d="M865.33,527.77c-3.19,0-6,0.65-8.42,1.95c-2.42,1.3-4.31,3.1-5.65,5.41c-1.34,2.31-2.01,4.88-2.01,7.71
			c0,2.96,0.63,5.56,1.89,7.8c1.26,2.25,2.99,3.98,5.2,5.2c2.21,1.22,4.67,1.83,7.39,1.83h1.18l3.19-7.09h-3.07
			c-2.33,0-4.11-0.68-5.35-2.04c-1.24-1.36-1.86-3.22-1.86-5.59c0-5.4,2.4-8.1,7.21-8.1c1.1,0,2.34,0.14,3.72,0.41v11
			c0,3.51,0.89,6.29,2.66,8.34c1.77,2.05,4.34,3.07,7.69,3.07h3.67h3.67c3.55,0,6.38-1.26,8.51-3.78c1.22,1.26,2.6,2.21,4.14,2.84
			c1.54,0.63,2.96,0.95,4.26,0.95h10.47c2.99,0,6.09-0.36,9.28-1.09c3.19-0.73,6.07-1.78,8.63-3.16c2.56,2.84,6.58,4.26,12.06,4.26
			h14.13v-29.33h-8.22v22.23h-5.91c-1.3,0-2.61-0.39-3.93-1.18c-1.32-0.79-2.24-1.87-2.75-3.25l-3.19-8.16
			c-1.22-3.15-3.22-5.65-6-7.48c-2.78-1.83-6.04-2.75-9.79-2.75c-3.94,0-7.63,0.91-11.06,2.72l3.02,6.74
			c2.05-0.99,4.31-1.48,6.8-1.48c2.25,0,4.18,0.52,5.8,1.57c1.62,1.04,2.82,2.53,3.61,4.46l2.72,6.56c-2.36,0.91-4.74,1.51-7.12,1.8
			c-2.39,0.3-5.08,0.44-8.07,0.44h-10.47c-2.64,0-4.55-0.73-5.74-2.19c0.24-1.06,0.36-2.17,0.36-3.31v-16.73h-8.28v15.43
			c0,2.05-0.56,3.7-1.69,4.94c-1.12,1.24-2.47,1.86-4.05,1.86h-1.18h-1.18c-1.5,0-2.63-0.42-3.4-1.27c-0.77-0.85-1.15-2.3-1.15-4.35
			l0.06-16.02C871.97,528.17,868.05,527.77,865.33,527.77z"/>
		<rect x="855.28" y="515.89" class="st0" width="8.51" height="7.45"/>
		<rect x="867.1" y="515.89" class="st0" width="8.51" height="7.45"/>
		<rect x="889.21" y="562.89" class="st0" width="8.51" height="7.45"/>
		<rect x="914.28" y="515.89" class="st0" width="8.51" height="7.45"/>
		<rect x="949.52" y="515.89" class="st0" width="8.51" height="7.45"/>
	</g>
	<g>
		<path class="st0" d="M426.89,462.23H439c9.24,0,15.52,5.83,15.52,14.37c0,8.54-6.28,14.37-15.52,14.37h-12.11V462.23z
			 M438.75,487.4c7.1,0,11.66-4.35,11.66-10.8c0-6.45-4.56-10.8-11.66-10.8h-7.76v21.59H438.75z"/>
		<path class="st0" d="M458.54,462.48c0-1.44,1.15-2.59,2.67-2.59c1.52,0,2.67,1.11,2.67,2.5c0,1.48-1.11,2.63-2.67,2.63
			C459.69,465.02,458.54,463.92,458.54,462.48z M459.23,469.21h3.94v21.76h-3.94V469.21z"/>
		<path class="st0" d="M466.95,488.67l1.64-3.12c1.85,1.31,4.8,2.26,7.64,2.26c3.65,0,5.17-1.11,5.17-2.96
			c0-4.89-13.75-0.66-13.75-9.32c0-3.9,3.49-6.53,9.07-6.53c2.83,0,6.03,0.74,7.92,1.97l-1.68,3.12c-1.97-1.27-4.15-1.72-6.28-1.72
			c-3.45,0-5.13,1.27-5.13,3c0,5.13,13.79,0.94,13.79,9.4c0,3.94-3.61,6.44-9.4,6.44C472.33,491.21,468.76,490.11,466.95,488.67z"/>
		<path class="st0" d="M501.52,489.7c-1.19,1.03-3,1.52-4.76,1.52c-4.39,0-6.9-2.42-6.9-6.81v-11.95h-3.69v-3.24h3.69v-4.76h3.94
			v4.76h6.24v3.24h-6.24v11.78c0,2.34,1.23,3.65,3.41,3.65c1.15,0,2.26-0.37,3.08-1.03L501.52,489.7z"/>
		<path class="st0" d="M504.6,462.48c0-1.44,1.15-2.59,2.67-2.59c1.52,0,2.67,1.11,2.67,2.5c0,1.48-1.11,2.63-2.67,2.63
			C505.74,465.02,504.6,463.92,504.6,462.48z M505.29,469.21h3.94v21.76h-3.94V469.21z"/>
		<path class="st0" d="M536.41,478.45v12.52h-3.94V478.9c0-4.27-2.13-6.36-5.87-6.36c-4.19,0-6.9,2.5-6.9,7.22v11.21h-3.94v-21.76
			h3.78v3.28c1.6-2.22,4.39-3.49,7.84-3.49C532.67,469.01,536.41,472.04,536.41,478.45z"/>
		<path class="st0" d="M563.67,469.21v18.8c0,7.68-3.9,11.17-11.29,11.17c-3.98,0-8-1.11-10.39-3.24l1.89-3.04
			c2.01,1.72,5.17,2.83,8.37,2.83c5.13,0,7.47-2.38,7.47-7.31v-1.72c-1.89,2.26-4.72,3.37-7.84,3.37c-6.28,0-11.04-4.27-11.04-10.55
			c0-6.28,4.76-10.51,11.04-10.51c3.24,0,6.2,1.19,8.05,3.57v-3.37H563.67z M559.81,479.51c0-4.23-3.12-7.06-7.47-7.06
			c-4.39,0-7.51,2.83-7.51,7.06c0,4.19,3.12,7.1,7.51,7.1C556.69,486.62,559.81,483.7,559.81,479.51z"/>
		<path class="st0" d="M590.47,469.21v21.76h-3.74v-3.28c-1.6,2.26-4.31,3.53-7.39,3.53c-5.62,0-9.36-3.08-9.36-9.48v-12.52h3.94
			v12.07c0,4.27,2.13,6.4,5.87,6.4c4.11,0,6.73-2.55,6.73-7.22v-11.25H590.47z"/>
		<path class="st0" d="M596.3,462.48c0-1.44,1.15-2.59,2.67-2.59c1.52,0,2.67,1.11,2.67,2.5c0,1.48-1.11,2.63-2.67,2.63
			C597.45,465.02,596.3,463.92,596.3,462.48z M597,469.21h3.94v21.76H597V469.21z"/>
		<path class="st0" d="M604.72,488.67l1.64-3.12c1.85,1.31,4.8,2.26,7.64,2.26c3.65,0,5.17-1.11,5.17-2.96
			c0-4.89-13.75-0.66-13.75-9.32c0-3.9,3.49-6.53,9.07-6.53c2.83,0,6.03,0.74,7.92,1.97l-1.68,3.12c-1.97-1.27-4.15-1.72-6.28-1.72
			c-3.45,0-5.13,1.27-5.13,3c0,5.13,13.79,0.94,13.79,9.4c0,3.94-3.61,6.44-9.4,6.44C610.09,491.21,606.52,490.11,604.72,488.67z"/>
		<path class="st0" d="M647.7,478.45v12.52h-3.94V478.9c0-4.27-2.13-6.36-5.87-6.36c-4.19,0-6.9,2.5-6.9,7.22v11.21h-3.94v-30.46
			h3.94v11.78c1.64-2.09,4.35-3.28,7.68-3.28C643.96,469.01,647.7,472.04,647.7,478.45z"/>
		<path class="st0" d="M673.72,481.4h-17.65c0.49,3.82,3.57,6.36,7.88,6.36c2.55,0,4.68-0.86,6.28-2.63l2.18,2.55
			c-1.97,2.3-4.97,3.53-8.58,3.53c-7.02,0-11.7-4.64-11.7-11.12c0-6.44,4.64-11.08,10.92-11.08c6.28,0,10.76,4.52,10.76,11.21
			C673.8,480.54,673.76,481.03,673.72,481.4z M656.07,478.57h13.96c-0.41-3.65-3.16-6.24-6.98-6.24
			C659.27,472.33,656.48,474.88,656.07,478.57z"/>
		<path class="st0" d="M698.8,460.51v30.46h-3.78v-3.45c-1.77,2.46-4.56,3.69-7.76,3.69c-6.36,0-11-4.47-11-11.12
			c0-6.65,4.64-11.08,11-11.08c3.08,0,5.79,1.15,7.59,3.49v-11.99H698.8z M694.9,480.09c0-4.64-3.16-7.64-7.31-7.64
			c-4.19,0-7.35,3-7.35,7.64c0,4.64,3.16,7.68,7.35,7.68C691.74,487.77,694.9,484.73,694.9,480.09z"/>
		<path class="st0" d="M736.78,487.4v3.57h-20.85v-28.74h20.28v3.57h-16.17v8.83h14.41v3.49h-14.41v9.28H736.78z"/>
		<path class="st0" d="M741.87,460.51h3.94v30.46h-3.94V460.51z"/>
		<path class="st0" d="M751.64,462.48c0-1.44,1.15-2.59,2.67-2.59s2.67,1.11,2.67,2.5c0,1.48-1.11,2.63-2.67,2.63
			C752.79,465.02,751.64,463.92,751.64,462.48z M752.33,469.21h3.94v21.76h-3.94V469.21z"/>
		<path class="st0" d="M775.03,489.7c-1.19,1.03-3,1.52-4.76,1.52c-4.39,0-6.9-2.42-6.9-6.81v-11.95h-3.69v-3.24h3.69v-4.76h3.94
			v4.76h6.24v3.24h-6.24v11.78c0,2.34,1.23,3.65,3.41,3.65c1.15,0,2.26-0.37,3.08-1.03L775.03,489.7z"/>
		<path class="st0" d="M797.65,481.4H780c0.49,3.82,3.57,6.36,7.88,6.36c2.55,0,4.68-0.86,6.28-2.63l2.18,2.55
			c-1.97,2.3-4.97,3.53-8.58,3.53c-7.02,0-11.7-4.64-11.7-11.12c0-6.44,4.64-11.08,10.92-11.08c6.28,0,10.76,4.52,10.76,11.21
			C797.74,480.54,797.69,481.03,797.65,481.4z M780,478.57h13.96c-0.41-3.65-3.16-6.24-6.98-6.24
			C783.2,472.33,780.41,474.88,780,478.57z"/>
		<path class="st0" d="M818.55,465.8h-9.85v-3.57h23.77v3.57h-9.85v25.16h-4.06V465.8z"/>
		<path class="st0" d="M846.54,469.01v3.82c-0.33-0.04-0.62-0.04-0.9-0.04c-4.23,0-6.86,2.59-6.86,7.35v10.84h-3.94v-21.76h3.78
			v3.65C840.02,470.32,842.73,469.01,846.54,469.01z"/>
		<path class="st0" d="M867.6,477.83v13.14h-3.74v-2.87c-1.31,1.97-3.74,3.12-7.14,3.12c-4.93,0-8.05-2.63-8.05-6.4
			c0-3.49,2.26-6.36,8.74-6.36h6.24v-0.78c0-3.33-1.93-5.25-5.83-5.25c-2.59,0-5.21,0.9-6.9,2.34l-1.64-2.96
			c2.26-1.81,5.5-2.79,8.99-2.79C864.24,469.01,867.6,471.88,867.6,477.83z M863.66,484.32v-3.04h-6.08c-3.9,0-5.01,1.52-5.01,3.37
			c0,2.18,1.81,3.53,4.8,3.53C860.34,488.18,862.68,486.82,863.66,484.32z"/>
		<path class="st0" d="M873.23,462.48c0-1.44,1.15-2.59,2.67-2.59c1.52,0,2.67,1.11,2.67,2.5c0,1.48-1.11,2.63-2.67,2.63
			C874.38,465.02,873.23,463.92,873.23,462.48z M873.92,469.21h3.94v21.76h-3.94V469.21z"/>
		<path class="st0" d="M905.04,478.45v12.52h-3.94V478.9c0-4.27-2.13-6.36-5.87-6.36c-4.19,0-6.9,2.5-6.9,7.22v11.21h-3.94v-21.76
			h3.78v3.28c1.6-2.22,4.39-3.49,7.84-3.49C901.31,469.01,905.04,472.04,905.04,478.45z"/>
		<path class="st0" d="M910.66,462.48c0-1.44,1.15-2.59,2.67-2.59S916,461,916,462.4c0,1.48-1.11,2.63-2.67,2.63
			C911.81,465.02,910.66,463.92,910.66,462.48z M911.36,469.21h3.94v21.76h-3.94V469.21z"/>
		<path class="st0" d="M942.48,478.45v12.52h-3.94V478.9c0-4.27-2.13-6.36-5.87-6.36c-4.19,0-6.9,2.5-6.9,7.22v11.21h-3.94v-21.76
			h3.78v3.28c1.6-2.22,4.39-3.49,7.84-3.49C938.74,469.01,942.48,472.04,942.48,478.45z"/>
		<path class="st0" d="M969.74,469.21v18.8c0,7.68-3.9,11.17-11.29,11.17c-3.98,0-8-1.11-10.39-3.24l1.89-3.04
			c2.01,1.72,5.17,2.83,8.37,2.83c5.13,0,7.47-2.38,7.47-7.31v-1.72c-1.89,2.26-4.72,3.37-7.84,3.37c-6.28,0-11.04-4.27-11.04-10.55
			c0-6.28,4.76-10.51,11.04-10.51c3.24,0,6.2,1.19,8.05,3.57v-3.37H969.74z M965.88,479.51c0-4.23-3.12-7.06-7.47-7.06
			c-4.39,0-7.51,2.83-7.51,7.06c0,4.19,3.12,7.1,7.51,7.1C962.76,486.62,965.88,483.7,965.88,479.51z"/>
		<path class="st0" d="M984.56,476.6c0-8.5,6.49-14.7,15.23-14.7c4.43,0,8.29,1.52,10.92,4.47l-2.67,2.59
			c-2.22-2.34-4.93-3.41-8.09-3.41c-6.49,0-11.29,4.68-11.29,11.04c0,6.36,4.8,11.04,11.29,11.04c3.16,0,5.87-1.11,8.09-3.45
			l2.67,2.59c-2.63,2.96-6.49,4.52-10.96,4.52C991.04,491.3,984.56,485.1,984.56,476.6z"/>
		<path class="st0" d="M1033.69,481.4h-17.65c0.49,3.82,3.57,6.36,7.88,6.36c2.55,0,4.68-0.86,6.28-2.63l2.18,2.55
			c-1.97,2.3-4.97,3.53-8.58,3.53c-7.02,0-11.7-4.64-11.7-11.12c0-6.44,4.64-11.08,10.92-11.08c6.28,0,10.76,4.52,10.76,11.21
			C1033.78,480.54,1033.73,481.03,1033.69,481.4z M1016.04,478.57H1030c-0.41-3.65-3.16-6.24-6.98-6.24
			C1019.24,472.33,1016.45,474.88,1016.04,478.57z"/>
		<path class="st0" d="M1058.9,478.45v12.52h-3.94V478.9c0-4.27-2.13-6.36-5.87-6.36c-4.19,0-6.9,2.5-6.9,7.22v11.21h-3.94v-21.76
			h3.78v3.28c1.6-2.22,4.39-3.49,7.84-3.49C1055.16,469.01,1058.9,472.04,1058.9,478.45z"/>
		<path class="st0" d="M1077.45,489.7c-1.19,1.03-3,1.52-4.76,1.52c-4.39,0-6.9-2.42-6.9-6.81v-11.95h-3.69v-3.24h3.69v-4.76h3.94
			v4.76h6.24v3.24h-6.24v11.78c0,2.34,1.23,3.65,3.41,3.65c1.15,0,2.26-0.37,3.08-1.03L1077.45,489.7z"/>
		<path class="st0" d="M1100.07,481.4h-17.65c0.49,3.82,3.57,6.36,7.88,6.36c2.55,0,4.68-0.86,6.28-2.63l2.18,2.55
			c-1.97,2.3-4.97,3.53-8.58,3.53c-7.02,0-11.7-4.64-11.7-11.12c0-6.44,4.64-11.08,10.92-11.08c6.28,0,10.76,4.52,10.76,11.21
			C1100.15,480.54,1100.11,481.03,1100.07,481.4z M1082.42,478.57h13.96c-0.41-3.65-3.16-6.24-6.98-6.24
			C1085.62,472.33,1082.83,474.88,1082.42,478.57z"/>
		<path class="st0" d="M1116.33,469.01v3.82c-0.33-0.04-0.62-0.04-0.9-0.04c-4.23,0-6.86,2.59-6.86,7.35v10.84h-3.94v-21.76h3.78
			v3.65C1109.8,470.32,1112.51,469.01,1116.33,469.01z"/>
	</g>
</g>
</svg>
